# xmcd
# 
# Track frame offsets:
#     150
#     17802
#     32054
#     46321
#     63118
#     79827
#     93551
#     114336
#     134527
#     151032
#     170159
#     190776
#     204411
#     218037
#     233503
#     250437
#     267115
#     283653
#     299571
#     318422
# 
# Disc length: 4422
# 
# Revision: 0
# Processed by: cddbd v1.5.2PL0 Copyright (c) Steve Scherf et al.
# Submitted via: fre:ac v1.0.31
# 
DISCID=1d114414
DTITLE=Stephen King, Narrated by Sissy Spacek - Carrie [CD4]
DYEAR=1974
DGENRE=Audio Book
TTITLE0=04-01
TTITLE1=04-02
TTITLE2=04-03
TTITLE3=04-04
TTITLE4=04-05
TTITLE5=04-06
TTITLE6=04-07
TTITLE7=04-08
TTITLE8=04-09
TTITLE9=04-10
TTITLE10=04-11
TTITLE11=04-12
TTITLE12=04-13
TTITLE13=04-14
TTITLE14=04-15
TTITLE15=04-16
TTITLE16=04-17
TTITLE17=04-18
TTITLE18=04-19
TTITLE19=04-20
EXTD=
EXTT0=
EXTT1=
EXTT2=
EXTT3=
EXTT4=
EXTT5=
EXTT6=
EXTT7=
EXTT8=
EXTT9=
EXTT10=
EXTT11=
EXTT12=
EXTT13=
EXTT14=
EXTT15=
EXTT16=
EXTT17=
EXTT18=
EXTT19=
PLAYORDER=
